<?xml version="1.0" encoding="UTF-8"?>
<svg xmlns="http://www.w3.org/2000/svg" viewBox="0 0 24 24" enable-background="new 0 0 24 24">
    <path style="text-indent:0;text-align:start;line-height:normal;text-transform:none;block-progression:tb;-inkscape-font-specification:Bitstream Vera Sans" d="M 6 0 L 6 24 L 8 24 L 8 0 L 6 0 z M 18 2 L 18 22 L 20 22 L 20 2 L 18 2 z M 3 6 L 3 18 L 5 18 L 5 6 L 3 6 z M 9 6 L 9 18 L 11 18 L 11 6 L 9 6 z M 15 6 L 15 18 L 17 18 L 17 6 L 15 6 z M 0 9 L 0 15 L 2 15 L 2 9 L 0 9 z M 12 9 L 12 15 L 14 15 L 14 9 L 12 9 z M 21 9 L 21 15 L 23 15 L 23 9 L 21 9 z"/>
</svg>