<svg height="480pt" viewBox="0 -80 480 480" width="480pt" xmlns="http://www.w3.org/2000/svg"><path d="m16 176h32c8.835938 0 16-7.164062 16-16s-7.164062-16-16-16h-32c-8.835938 0-16 7.164062-16 16s7.164062 16 16 16zm0 0"/><path d="m128 192v-64c0-8.835938-7.164062-16-16-16s-16 7.164062-16 16v64c0 8.835938 7.164062 16 16 16s16-7.164062 16-16zm0 0"/><path d="m160 272c0 8.835938 7.164062 16 16 16s16-7.164062 16-16v-32c0-8.835938-7.164062-16-16-16s-16 7.164062-16 16zm0 0"/><path d="m176 192c8.835938 0 16-7.164062 16-16v-128c0-8.835938-7.164062-16-16-16s-16 7.164062-16 16v128c0 8.835938 7.164062 16 16 16zm0 0"/><path d="m464 144h-32c-8.835938 0-16 7.164062-16 16s7.164062 16 16 16h32c8.835938 0 16-7.164062 16-16s-7.164062-16-16-16zm0 0"/><path d="m256 224v-128c0-8.835938-7.164062-16-16-16s-16 7.164062-16 16v128c0 8.835938 7.164062 16 16 16s16-7.164062 16-16zm0 0"/><path d="m320 208v-80c0-8.835938-7.164062-16-16-16s-16 7.164062-16 16v80c0 8.835938 7.164062 16 16 16s16-7.164062 16-16zm0 0"/><path d="m352 304c0 8.835938 7.164062 16 16 16s16-7.164062 16-16v-192c0-8.835938-7.164062-16-16-16s-16 7.164062-16 16zm0 0"/><path d="m368 64c8.835938 0 16-7.164062 16-16v-32c0-8.835938-7.164062-16-16-16s-16 7.164062-16 16v32c0 8.835938 7.164062 16 16 16zm0 0"/></svg>